<?xml version="1.0" encoding="utf-8"?>
<!-- Generator: Adobe Illustrator 23.1.0, SVG Export Plug-In . SVG Version: 6.00 Build 0)  -->
<svg version="1.1" id="Layer_1" xmlns="http://www.w3.org/2000/svg" xmlns:xlink="http://www.w3.org/1999/xlink" x="0px" y="0px"
	 viewBox="0 0 300 300" style="enable-background:new 0 0 300 300;" xml:space="preserve">
<style type="text/css">
	.st0{fill:none;}
	.st1{fill:#FFFFFF;stroke:#000000;stroke-width:1.4578;stroke-miterlimit:10;}
	.st2{fill:none;stroke:#000000;stroke-width:1.4578;stroke-miterlimit:10;}
	.st3{fill:none;stroke:#000000;stroke-miterlimit:10;}
	.st4{fill:none;stroke:#0073E7;stroke-width:0.8252;stroke-miterlimit:10;}
	.st5{fill:none;stroke:#0073E7;stroke-width:1.1749;stroke-miterlimit:10;}
</style>
<path class="st0" d="M150.67,104.34c-16.12,0-29.78,9.46-34.53,22.55c5.25,2.77,11.57,5.97,19.11,8.82
	c20.55,7.76,37.64-0.52,50.36-7.59C181.29,114.39,167.29,104.34,150.67,104.34z"/>
<ellipse class="st1" cx="141.26" cy="64.2" rx="37.49" ry="57.33"/>
<path class="st1" d="M127.06,26.15c0.63,0,1.14,6.69,1.14,7.65c0,0.96-0.51,3.48-1.14,3.48s-1.14-2.52-1.14-3.48
	S126.43,26.15,127.06,26.15z"/>
<path class="st1" d="M155.04,27.11c0.63,0,1.14,7.47,1.14,8.43s-0.51,1.74-1.14,1.74s-1.14-0.78-1.14-1.74
	S154.41,27.11,155.04,27.11z"/>
<path class="st2" d="M132.77,47.04c4.25-3.49,4.63-20.89,13.05,0.87"/>
<line class="st2" x1="67.47" y1="66.29" x2="99.53" y2="152.46"/>
<line class="st3" x1="73.86" y1="68.37" x2="105.93" y2="154.54"/>
<line class="st2" x1="210.29" y1="60.19" x2="187.18" y2="145.2"/>
<line class="st3" x1="204.35" y1="62.13" x2="182.99" y2="148.49"/>
<path class="st4" d="M226.27,141.21c0.28-0.66,0.43-1.35,0.43-2.07c0-3.87-4.33-7.01-9.67-7.01s-9.67,3.14-9.67,7.01
	c0,0.48,0.07,0.94,0.19,1.39c-0.06,0-0.13-0.01-0.19-0.01c-6.37,0-11.53,3.27-11.53,7.31s5.16,7.31,11.53,7.31
	c3.62,0,6.84-1.06,8.96-2.71c2.48,1.24,5.96,2.02,9.81,2.02c7.53,0,13.64-2.96,13.64-6.61C239.75,144.2,233.73,141.25,226.27,141.21
	z"/>
<path class="st5" d="M71.35,204.71c0.46-0.81,0.71-1.68,0.71-2.57c0-4.8-7.08-8.69-15.82-8.69s-15.82,3.89-15.82,8.69
	c0,0.59,0.11,1.16,0.31,1.72c-0.11,0-0.21-0.01-0.31-0.01c-10.41,0-18.85,4.06-18.85,9.06s8.44,9.06,18.85,9.06
	c5.92,0,11.19-1.31,14.65-3.36c4.06,1.54,9.74,2.5,16.04,2.5c12.32,0,22.3-3.67,22.3-8.2C93.41,208.41,83.55,204.76,71.35,204.71z"
	/>
</svg>
