<?xml version="1.0" encoding="utf-8"?>
<!-- Generator: Adobe Illustrator 23.1.0, SVG Export Plug-In . SVG Version: 6.00 Build 0)  -->
<svg version="1.1" id="Layer_1" xmlns="http://www.w3.org/2000/svg" xmlns:xlink="http://www.w3.org/1999/xlink" x="0px" y="0px"
	 viewBox="0 0 300 300" style="enable-background:new 0 0 300 300;" xml:space="preserve">
<style type="text/css">
	.st0{fill:none;stroke:#5CCF00;stroke-miterlimit:10;}
	.st1{fill:none;}
	.st2{fill:#FFFFFF;stroke:#000000;stroke-width:1.4578;stroke-miterlimit:10;}
	.st3{fill:none;stroke:#000000;stroke-width:1.4578;stroke-miterlimit:10;}
	.st4{fill:none;stroke:#000000;stroke-miterlimit:10;}
</style>
<line class="st0" x1="45.5" y1="265.84" x2="257.93" y2="263.54"/>
<path class="st1" d="M150.67,104.34c-16.12,0-29.78,9.46-34.53,22.55c5.25,2.77,11.57,5.97,19.11,8.82
	c20.55,7.76,37.64-0.52,50.36-7.59C181.29,114.39,167.29,104.34,150.67,104.34z"/>
<ellipse class="st2" cx="140.07" cy="80.49" rx="37.49" ry="57.33"/>
<path class="st2" d="M125.87,42.44c0.63,0,1.14,6.69,1.14,7.65c0,0.96-0.51,3.48-1.14,3.48s-1.14-2.52-1.14-3.48
	C124.73,49.13,125.24,42.44,125.87,42.44z"/>
<path class="st2" d="M153.85,43.4c0.63,0,1.14,7.47,1.14,8.43s-0.51,1.74-1.14,1.74s-1.14-0.78-1.14-1.74S153.22,43.4,153.85,43.4z"
	/>
<path class="st3" d="M131.58,63.33c4.25-3.49,4.63-20.89,13.05,0.87"/>
<line class="st3" x1="67.47" y1="66.29" x2="99.53" y2="152.46"/>
<line class="st4" x1="73.86" y1="68.37" x2="105.93" y2="154.54"/>
<line class="st3" x1="210.29" y1="60.19" x2="187.18" y2="145.2"/>
<line class="st4" x1="204.35" y1="62.13" x2="182.99" y2="148.49"/>
</svg>
